<svg width="115" height="19" viewBox="0 0 115 19" fill="none" xmlns="http://www.w3.org/2000/svg">
<path d="M4.126 5.57V8.694H9.164V11.598H4.126V14.986H9.824V18H0.364L0.364 2.556H9.824V5.57H4.126ZM11.5183 11.84C11.5183 10.5787 11.753 9.47133 12.2223 8.518C12.7063 7.56467 13.359 6.83133 14.1803 6.318C15.0017 5.80467 15.9183 5.548 16.9303 5.548C17.737 5.548 18.4703 5.71667 19.1303 6.054C19.805 6.39133 20.333 6.846 20.7143 7.418V1.72H24.4763V18H20.7143V16.24C20.3623 16.8267 19.8563 17.296 19.1963 17.648C18.551 18 17.7957 18.176 16.9303 18.176C15.9183 18.176 15.0017 17.9193 14.1803 17.406C13.359 16.878 12.7063 16.1373 12.2223 15.184C11.753 14.216 11.5183 13.1013 11.5183 11.84ZM20.7143 11.862C20.7143 10.9233 20.4503 10.1827 19.9223 9.64C19.409 9.09733 18.7783 8.826 18.0303 8.826C17.2823 8.826 16.6443 9.09733 16.1163 9.64C15.603 10.168 15.3463 10.9013 15.3463 11.84C15.3463 12.7787 15.603 13.5267 16.1163 14.084C16.6443 14.6267 17.2823 14.898 18.0303 14.898C18.7783 14.898 19.409 14.6267 19.9223 14.084C20.4503 13.5413 20.7143 12.8007 20.7143 11.862ZM39.32 5.724V18H35.558V16.328C35.1767 16.8707 34.656 17.3107 33.996 17.648C33.3507 17.9707 32.632 18.132 31.84 18.132C30.9013 18.132 30.0727 17.9267 29.354 17.516C28.6353 17.0907 28.078 16.482 27.682 15.69C27.286 14.898 27.088 13.9667 27.088 12.896V5.724H30.828V12.39C30.828 13.2113 31.0407 13.8493 31.466 14.304C31.8913 14.7587 32.4633 14.986 33.182 14.986C33.9153 14.986 34.4947 14.7587 34.92 14.304C35.3453 13.8493 35.558 13.2113 35.558 12.39V5.724H39.32Z" fill="#525FE1"/>
<path d="M57.6862 5.592C59.2115 5.592 60.4215 6.054 61.3162 6.978C62.2255 7.902 62.6802 9.18533 62.6802 10.828V18H58.9402V11.334C58.9402 10.542 58.7275 9.93333 58.3022 9.508C57.8915 9.068 57.3195 8.848 56.5862 8.848C55.8529 8.848 55.2735 9.068 54.8482 9.508C54.4375 9.93333 54.2322 10.542 54.2322 11.334V18H50.4922V11.334C50.4922 10.542 50.2795 9.93333 49.8542 9.508C49.4435 9.068 48.8715 8.848 48.1382 8.848C47.4049 8.848 46.8255 9.068 46.4002 9.508C45.9895 9.93333 45.7842 10.542 45.7842 11.334V18H42.0222V5.724H45.7842V7.264C46.1655 6.75067 46.6642 6.34733 47.2802 6.054C47.8962 5.746 48.5929 5.592 49.3702 5.592C50.2942 5.592 51.1155 5.79 51.8342 6.186C52.5675 6.582 53.1395 7.14667 53.5502 7.88C53.9755 7.20533 54.5549 6.65533 55.2882 6.23C56.0215 5.80467 56.8209 5.592 57.6862 5.592ZM67.2033 4.448C66.5433 4.448 66.0006 4.25733 65.5753 3.876C65.1646 3.48 64.9593 2.996 64.9593 2.424C64.9593 1.83733 65.1646 1.35333 65.5753 0.971999C66.0006 0.575999 66.5433 0.377999 67.2033 0.377999C67.8486 0.377999 68.3766 0.575999 68.7873 0.971999C69.2126 1.35333 69.4253 1.83733 69.4253 2.424C69.4253 2.996 69.2126 3.48 68.7873 3.876C68.3766 4.25733 67.8486 4.448 67.2033 4.448ZM69.0733 5.724V18H65.3113V5.724H69.0733ZM79.2795 5.592C80.7169 5.592 81.8609 6.06133 82.7115 7C83.5769 7.924 84.0095 9.2 84.0095 10.828V18H80.2695V11.334C80.2695 10.5127 80.0569 9.87467 79.6315 9.42C79.2062 8.96533 78.6342 8.738 77.9155 8.738C77.1969 8.738 76.6249 8.96533 76.1995 9.42C75.7742 9.87467 75.5615 10.5127 75.5615 11.334V18H71.7995V5.724H75.5615V7.352C75.9429 6.80933 76.4562 6.384 77.1015 6.076C77.7469 5.75333 78.4729 5.592 79.2795 5.592ZM85.8758 11.84C85.8758 10.5787 86.1104 9.47133 86.5798 8.518C87.0638 7.56467 87.7164 6.83133 88.5378 6.318C89.3591 5.80467 90.2758 5.548 91.2878 5.548C92.1531 5.548 92.9084 5.724 93.5538 6.076C94.2138 6.428 94.7198 6.89 95.0718 7.462V5.724H98.8338V18H95.0718V16.262C94.7051 16.834 94.1918 17.296 93.5318 17.648C92.8864 18 92.1311 18.176 91.2658 18.176C90.2684 18.176 89.3591 17.9193 88.5378 17.406C87.7164 16.878 87.0638 16.1373 86.5798 15.184C86.1104 14.216 85.8758 13.1013 85.8758 11.84ZM95.0718 11.862C95.0718 10.9233 94.8078 10.1827 94.2798 9.64C93.7664 9.09733 93.1358 8.826 92.3878 8.826C91.6398 8.826 91.0018 9.09733 90.4738 9.64C89.9604 10.168 89.7038 10.9013 89.7038 11.84C89.7038 12.7787 89.9604 13.5267 90.4738 14.084C91.0018 14.6267 91.6398 14.898 92.3878 14.898C93.1358 14.898 93.7664 14.6267 94.2798 14.084C94.8078 13.5413 95.0718 12.8007 95.0718 11.862ZM108.397 14.81V18H106.483C105.119 18 104.056 17.67 103.293 17.01C102.531 16.3353 102.149 15.2427 102.149 13.732V8.848H100.653V5.724H102.149V2.732H105.911V5.724H108.375V8.848H105.911V13.776C105.911 14.1427 105.999 14.4067 106.175 14.568C106.351 14.7293 106.645 14.81 107.055 14.81H108.397ZM112.385 4.448C111.725 4.448 111.182 4.25733 110.757 3.876C110.346 3.48 110.141 2.996 110.141 2.424C110.141 1.83733 110.346 1.35333 110.757 0.971999C111.182 0.575999 111.725 0.377999 112.385 0.377999C113.03 0.377999 113.558 0.575999 113.969 0.971999C114.394 1.35333 114.607 1.83733 114.607 2.424C114.607 2.996 114.394 3.48 113.969 3.876C113.558 4.25733 113.03 4.448 112.385 4.448ZM114.255 5.724V18H110.493V5.724H114.255Z" fill="#1C1C1C"/>
</svg>
